<svg width="21" height="21" viewBox="0 0 21 21" fill="none" xmlns="http://www.w3.org/2000/svg">
<path d="M14.8569 0.00359469C15.6764 -0.0247001 16.4931 0.114282 17.2571 0.412059C18.0211 0.709836 18.7164 1.16016 19.3006 1.73556C19.8637 2.31971 20.304 3.01082 20.5955 3.76804C20.8869 4.52527 21.0236 5.33324 20.9975 6.1442V14.8565C20.9975 16.676 20.4027 18.2417 19.2656 19.3439C18.0592 20.4576 16.4629 21.0515 14.8219 20.9971H6.1796C4.55239 21.0475 2.9711 20.4534 1.77971 19.3439C1.18913 18.7524 0.726693 18.0456 0.421194 17.2675C0.115695 16.4895 -0.026316 15.6568 0.00400785 14.8215V6.1442C0.00400785 2.45284 2.45325 0.00359469 6.14461 0.00359469H14.8569ZM14.9007 1.95424H6.1796C4.91124 1.95424 3.81783 2.33038 3.09181 3.04766C2.70386 3.46087 2.40321 3.94806 2.20782 4.4801C2.01244 5.01215 1.92633 5.57812 1.95466 6.1442V14.8215C1.95466 16.1336 2.33079 17.1833 3.09181 17.9531C3.94057 18.7038 5.04756 19.0958 6.1796 19.0465H14.8219C15.954 19.0958 17.061 18.7038 17.9097 17.9531C18.3172 17.5499 18.6365 17.0665 18.8473 16.5334C19.0581 16.0004 19.1559 15.4293 19.1344 14.8565V6.1442C19.1626 5.01813 18.7552 3.92459 17.9972 3.09139C17.584 2.70344 17.0968 2.40279 16.5648 2.20741C16.0327 2.01202 15.4667 1.92592 14.9007 1.95424ZM10.5008 5.04204C13.4661 5.04204 15.9241 7.49128 15.9241 10.4654C15.9241 11.9037 15.3527 13.2832 14.3356 14.3002C13.3186 15.3173 11.9391 15.8887 10.5008 15.8887C9.06241 15.8887 7.68297 15.3173 6.6659 14.3002C5.64883 13.2832 5.07744 11.9037 5.07744 10.4654C5.07744 9.02701 5.64883 7.64757 6.6659 6.6305C7.68297 5.61342 9.06241 5.04204 10.5008 5.04204ZM10.5008 6.98394C9.58117 6.98854 8.70055 7.35589 8.05029 8.00615C7.40004 8.65641 7.03269 9.53703 7.02809 10.4566C7.03269 11.3762 7.40004 12.2568 8.05029 12.9071C8.70055 13.5574 9.58117 13.9247 10.5008 13.9293C11.4204 13.9247 12.301 13.5574 12.9512 12.9071C13.6015 12.2568 13.9688 11.3762 13.9734 10.4566C13.9688 9.53703 13.6015 8.65641 12.9512 8.00615C12.301 7.35589 11.4204 6.98854 10.5008 6.98394ZM16.134 3.68621C16.4588 3.68621 16.7703 3.81523 17 4.04489C17.2296 4.27455 17.3587 4.58604 17.3587 4.91083C17.3587 5.23562 17.2296 5.54711 17 5.77677C16.7703 6.00643 16.4588 6.13545 16.134 6.13545C15.8092 6.13545 15.4978 6.00643 15.2681 5.77677C15.0384 5.54711 14.9094 5.23562 14.9094 4.91083C14.9094 4.58604 15.0384 4.27455 15.2681 4.04489C15.4978 3.81523 15.8092 3.68621 16.134 3.68621Z" fill="#535353"/>
</svg>
