<svg width="102" height="41" viewBox="0 0 102 41" fill="none" xmlns="http://www.w3.org/2000/svg">
<path opacity="0.23" d="M40.192 29.456C38.448 29.456 36.944 29.112 35.68 28.424C34.416 27.72 33.44 26.728 32.752 25.448C32.064 24.168 31.72 22.64 31.72 20.864C31.72 19.088 32.064 17.552 32.752 16.256C33.44 14.96 34.416 13.968 35.68 13.28C36.944 12.576 38.448 12.224 40.192 12.224C41.936 12.224 43.44 12.576 44.704 13.28C45.968 13.968 46.944 14.96 47.632 16.256C48.32 17.552 48.664 19.088 48.664 20.864C48.664 22.64 48.32 24.168 47.632 25.448C46.944 26.728 45.968 27.72 44.704 28.424C43.44 29.112 41.936 29.456 40.192 29.456ZM40.192 25.496C40.944 25.496 41.584 25.312 42.112 24.944C42.64 24.576 43.04 24.048 43.312 23.36C43.584 22.656 43.72 21.824 43.72 20.864C43.72 19.888 43.584 19.056 43.312 18.368C43.04 17.664 42.64 17.128 42.112 16.76C41.584 16.376 40.944 16.184 40.192 16.184C39.44 16.184 38.8 16.376 38.272 16.76C37.744 17.128 37.344 17.664 37.072 18.368C36.8 19.056 36.664 19.888 36.664 20.864C36.664 21.824 36.8 22.656 37.072 23.36C37.344 24.048 37.744 24.576 38.272 24.944C38.8 25.312 39.44 25.496 40.192 25.496ZM39.424 24.248L41.392 21.872L48.664 27.968L46.696 30.344L39.424 24.248ZM62.815 15.968V29H58.159V15.968H62.815ZM58.159 23.312H59.119C59.039 24.736 58.791 25.904 58.375 26.816C57.975 27.728 57.447 28.4 56.791 28.832C56.151 29.248 55.423 29.456 54.607 29.456C53.839 29.456 53.127 29.288 52.471 28.952C51.831 28.616 51.311 28.096 50.911 27.392C50.527 26.672 50.335 25.752 50.335 24.632V15.968H54.991V23.696C54.991 24.176 55.047 24.568 55.159 24.872C55.271 25.176 55.431 25.4 55.639 25.544C55.863 25.672 56.127 25.736 56.431 25.736C56.687 25.736 56.919 25.688 57.127 25.592C57.335 25.48 57.511 25.32 57.655 25.112C57.815 24.904 57.935 24.648 58.015 24.344C58.111 24.04 58.159 23.696 58.159 23.312ZM70.9176 29.456C69.5576 29.456 68.3736 29.176 67.3656 28.616C66.3736 28.04 65.6056 27.232 65.0616 26.192C64.5176 25.152 64.2456 23.92 64.2456 22.496C64.2456 21.008 64.5176 19.744 65.0616 18.704C65.6216 17.664 66.4056 16.872 67.4136 16.328C68.4216 15.784 69.5896 15.512 70.9176 15.512C72.2776 15.512 73.4536 15.8 74.4456 16.376C75.4536 16.936 76.2296 17.736 76.7736 18.776C77.3176 19.816 77.5896 21.056 77.5896 22.496C77.5896 23.968 77.3096 25.224 76.7496 26.264C76.2056 27.288 75.4296 28.08 74.4216 28.64C73.4296 29.184 72.2616 29.456 70.9176 29.456ZM70.9176 25.736C71.5416 25.736 72.0136 25.464 72.3336 24.92C72.6536 24.36 72.8136 23.552 72.8136 22.496C72.8136 21.424 72.6536 20.616 72.3336 20.072C72.0136 19.512 71.5416 19.232 70.9176 19.232C70.2936 19.232 69.8216 19.512 69.5016 20.072C69.1816 20.616 69.0216 21.424 69.0216 22.496C69.0216 23.552 69.1816 24.36 69.5016 24.92C69.8216 25.464 70.2936 25.736 70.9176 25.736ZM79.6225 24.464V12.944H84.2785V23.72C84.2785 24.264 84.3825 24.696 84.5905 25.016C84.7985 25.32 85.2545 25.472 85.9585 25.472H86.8225V29C86.5665 29.112 86.1985 29.216 85.7185 29.312C85.2385 29.408 84.6945 29.456 84.0865 29.456C82.5825 29.456 81.4625 29.024 80.7265 28.16C79.9905 27.296 79.6225 26.064 79.6225 24.464ZM78.1825 19.472V15.968H86.8225V19.472H78.1825ZM99.0569 21.032L96.3929 22.496C96.3929 21.392 96.2249 20.56 95.8889 20C95.5689 19.424 95.0889 19.136 94.4489 19.136C93.8089 19.136 93.3209 19.424 92.9849 20C92.6649 20.56 92.5049 21.392 92.5049 22.496C92.5049 23.584 92.6809 24.416 93.0329 24.992C93.3849 25.552 93.9049 25.832 94.5929 25.832C95.0249 25.832 95.3689 25.744 95.6249 25.568C95.8969 25.392 96.1209 25.104 96.2969 24.704H101.169C100.849 26.192 100.089 27.36 98.8889 28.208C97.7049 29.04 96.2729 29.456 94.5929 29.456C93.2009 29.456 91.9929 29.176 90.9689 28.616C89.9449 28.04 89.1529 27.232 88.5929 26.192C88.0489 25.152 87.7769 23.92 87.7769 22.496C87.7769 21.008 88.0489 19.744 88.5929 18.704C89.1529 17.664 89.9369 16.872 90.9449 16.328C91.9529 15.784 93.1209 15.512 94.4489 15.512C95.7929 15.512 96.9609 15.792 97.9529 16.352C98.9449 16.912 99.7129 17.712 100.257 18.752C100.801 19.792 101.073 21.032 101.073 22.472V23.48H89.6489V21.032H99.0569Z" fill="black"/>
<path d="M22.1891 21.3718L20.7885 29H12.7532L13.7115 23.9872C14.2521 21.4202 14.9647 19.265 15.8494 17.5214C16.734 15.7293 17.8889 13.8889 19.3141 12H23C22.3611 13.1624 21.7714 14.2279 21.2308 15.1966C20.6902 16.1652 20.2233 17.1581 19.8301 18.1752C19.437 19.1439 19.1175 20.2094 18.8718 21.3718H22.1891ZM9.36218 21.3718L7.96154 29H0L0.958334 23.9872C1.49893 21.4202 2.21154 19.265 3.09615 17.5214C3.98077 15.7293 5.11111 13.8889 6.48718 12H10.1731C9.53419 13.1624 8.94444 14.2279 8.40385 15.1966C7.91239 16.1652 7.47009 17.1581 7.07692 18.1752C6.68376 19.1439 6.36432 20.2094 6.11859 21.3718H9.36218Z" fill="#C4C4C4"/>
</svg>
